<?xml version="1.0" standalone="no"?>
<!DOCTYPE svg PUBLIC "-//W3C//DTD SVG 20010904//EN"
 "http://www.w3.org/TR/2001/REC-SVG-20010904/DTD/svg10.dtd">
<svg version="1.0" xmlns="http://www.w3.org/2000/svg"
 width="260.000000pt" height="260.000000pt" viewBox="0 0 260.000000 260.000000"
 preserveAspectRatio="xMidYMid meet">
<metadata>
Created by potrace 1.14, written by Peter Selinger 2001-2017
</metadata>
<g transform="translate(0.000000,260.000000) scale(0.100000,-0.100000)"
fill="#000000" stroke="none">
<path d="M0 1300 l0 -1300 1300 0 1300 0 0 1300 0 1300 -1300 0 -1300 0 0
-1300z m1518 790 c147 -41 271 -119 384 -239 59 -63 87 -103 127 -183 71 -146
85 -205 85 -368 0 -110 -4 -149 -22 -213 -43 -152 -120 -275 -241 -389 -63
-59 -103 -87 -183 -127 -146 -71 -205 -85 -368 -85 -110 0 -149 4 -213 22
-152 43 -275 120 -389 241 -59 63 -87 103 -127 183 -71 146 -85 205 -85 368 0
110 4 149 22 213 43 152 120 275 241 389 113 107 277 186 436 212 68 10 261
-3 333 -24z"/>
<path d="M1201 1988 c-251 -36 -464 -208 -551 -446 -74 -202 -56 -413 51 -594
109 -186 296 -307 517 -338 250 -34 516 87 657 301 150 224 159 512 24 741
-108 184 -295 307 -513 337 -87 12 -95 12 -185 -1z m258 -93 c30 -14 82 -45
116 -69 75 -54 185 -170 185 -196 0 -23 -26 -50 -48 -50 -9 0 -58 40 -107 88
-72 69 -108 96 -177 130 -90 44 -108 65 -88 102 15 27 53 26 119 -5z m381
-405 c22 -12 43 -97 38 -154 -4 -45 -23 -62 -61 -52 -22 5 -27 13 -32 54 -4
26 -11 63 -16 82 -15 58 23 96 71 70z"/>
</g>
</svg>
